<svg version="1.1" viewBox="0 0 640 400" xmlns="http://www.w3.org/2000/svg" xmlns:xlink="http://www.w3.org/1999/xlink" xmlns:svgjs="http://svgjs.dev/svgjs" matcher="0.7882045131130448"><g viewBox="0 0 640 400" matcher="0.7882045131130448"><g matcher="0.7882045131130448"><g matcher="0.7882045131130448"><g matcher="0.7882045131130448"><svg viewBox="0 0 640 400" data-background-color="#ffffff" preserveAspectRatio="xMidYMid meet" height="400" width="640" xmlns="http://www.w3.org/2000/svg" xmlns:xlink="http://www.w3.org/1999/xlink"><rect width="640" height="400" x="0" y="0" opacity="1" fill="#ffffff" data-fill-palette-color="background" id="background"></rect><g id="tight-bounds" transform="matrix(1,0,0,1,148.57422074112307,28.57422074112307)"><svg viewBox="0 0 342.85155851775386 342.85155851775386" height="342.85155851775386" width="342.85155851775386"><g><svg></svg></g><g><svg viewBox="0 0 342.85155851775386 342.85155851775386" height="342.85155851775386" width="342.85155851775386"><g><path d="M0 171.426c0-94.676 76.75-171.426 171.426-171.426 94.676 0 171.426 76.75 171.426 171.426 0 94.676-76.75 171.426-171.426 171.426-94.676 0-171.426-76.75-171.426-171.426zM171.426 338.432c92.235 0 167.006-74.771 167.006-167.006 0-92.235-74.771-167.006-167.006-167.006-92.235 0-167.006 74.771-167.006 167.006 0 92.235 74.771 167.006 167.006 167.006z" data-fill-palette-color="tertiary" fill="#ea9937" stroke="transparent"></path><ellipse rx="164.56874808852186" ry="164.56874808852186" cx="171.42577925887693" cy="171.42577925887693" fill="#ea9937" stroke="transparent" stroke-width="0" fill-opacity="1" data-fill-palette-color="tertiary"></ellipse></g><g transform="matrix(1,0,0,1,64.84655864529837,76.71403738870748)"><svg viewBox="0 0 213.1584412271571 189.4234837403389" height="189.4234837403389" width="213.1584412271571"><g><svg viewBox="0 0 213.1584412271571 189.4234837403389" height="189.4234837403389" width="213.1584412271571"><g transform="matrix(1,0,0,1,0,110.68170476429322)"><svg viewBox="0 0 213.1584412271571 78.74177897604568" height="78.74177897604568" width="213.1584412271571"><g id="textblocktransform"><svg viewBox="0 0 213.1584412271571 78.74177897604568" height="78.74177897604568" width="213.1584412271571" id="textblock"><g><svg viewBox="0 0 213.1584412271571 49.00751778725898" height="49.00751778725898" width="213.1584412271571"><g transform="matrix(1,0,0,1,0,0)"><svg width="213.1584412271571" viewBox="3 -39.650001525878906 219.6300048828125 50.5" height="49.00751778725898" data-palette-color="#ffffff"><path d="M3-34.55L20.15-34.55 19.5-29.8 9.35-29.8 9.35-19.9 18.2-19.9 18.2-15.2 9.35-15.2 9.35-4.8 20.15-4.8 20.15 0 3 0 3-34.55ZM41.4-6.4Q41.4-5.1 41.75-4.48 42.1-3.85 42.9-3.45L42.9-3.45 41.65 0.65Q39.6 0.4 38.37-0.45 37.15-1.3 36.55-3.05L36.55-3.05Q34.25 0.75 30.1 0.75L30.1 0.75Q26.8 0.75 24.85-1.48 22.9-3.7 22.9-7.4L22.9-7.4Q22.9-11.7 25.57-13.95 28.25-16.2 33.35-16.2L33.35-16.2 35.4-16.2 35.4-18.05Q35.4-20.55 34.52-21.58 33.65-22.6 31.7-22.6L31.7-22.6Q29.35-22.6 25.85-21.3L25.85-21.3 24.45-25.3Q26.45-26.2 28.6-26.68 30.75-27.15 32.7-27.15L32.7-27.15Q41.4-27.15 41.4-18.35L41.4-18.35 41.4-6.4ZM31.75-3.7Q34.15-3.7 35.4-7L35.4-7 35.4-12.55 33.95-12.55Q31.4-12.55 30.22-11.4 29.05-10.25 29.05-7.85L29.05-7.85Q29.05-5.8 29.75-4.75 30.45-3.7 31.75-3.7L31.75-3.7ZM54.55-27.15Q59.25-27.15 62.5-24.05L62.5-24.05 60.15-20.7Q58.75-21.7 57.5-22.2 56.25-22.7 54.95-22.7L54.95-22.7Q53.5-22.7 52.67-21.93 51.85-21.15 51.85-19.8L51.85-19.8Q51.85-18.45 52.77-17.63 53.7-16.8 56.5-15.7L56.5-15.7Q59.95-14.35 61.6-12.5 63.25-10.65 63.25-7.55L63.25-7.55Q63.25-3.7 60.55-1.48 57.85 0.75 53.7 0.75L53.7 0.75Q51 0.75 48.72-0.23 46.45-1.2 44.75-2.95L44.75-2.95 47.75-6.25Q50.55-3.8 53.45-3.8L53.45-3.8Q55.1-3.8 56.05-4.67 57-5.55 57-7.1L57-7.1Q57-8.25 56.6-8.97 56.2-9.7 55.2-10.33 54.2-10.95 52.2-11.7L52.2-11.7Q48.75-13.05 47.27-14.85 45.8-16.65 45.8-19.45L45.8-19.45Q45.8-22.8 48.17-24.98 50.55-27.15 54.55-27.15L54.55-27.15ZM65.79-26.45L82.04-26.45 82.04-22 71.49-4.85 82.24-4.85 81.69 0 64.89 0 64.89-4.45 75.44-21.6 65.79-21.6 65.79-26.45ZM95.24-27.15Q100.24-27.15 103.02-23.65 105.79-20.15 105.79-13.25L105.79-13.25Q105.79-6.65 102.99-2.95 100.19 0.75 95.24 0.75L95.24 0.75Q90.29 0.75 87.49-2.88 84.69-6.5 84.69-13.25L84.69-13.25Q84.69-19.95 87.49-23.55 90.29-27.15 95.24-27.15L95.24-27.15ZM95.24-22.5Q93.09-22.5 92.09-20.38 91.09-18.25 91.09-13.25L91.09-13.25Q91.09-8.2 92.09-6.08 93.09-3.95 95.24-3.95L95.24-3.95Q97.39-3.95 98.39-6.08 99.39-8.2 99.39-13.25L99.39-13.25Q99.39-18.3 98.39-20.4 97.39-22.5 95.24-22.5L95.24-22.5ZM119.74-27.15Q124.74-27.15 127.51-23.65 130.29-20.15 130.29-13.25L130.29-13.25Q130.29-6.65 127.49-2.95 124.69 0.75 119.74 0.75L119.74 0.75Q114.79 0.75 111.99-2.88 109.19-6.5 109.19-13.25L109.19-13.25Q109.19-19.95 111.99-23.55 114.79-27.15 119.74-27.15L119.74-27.15ZM119.74-22.5Q117.59-22.5 116.59-20.38 115.59-18.25 115.59-13.25L115.59-13.25Q115.59-8.2 116.59-6.08 117.59-3.95 119.74-3.95L119.74-3.95Q121.89-3.95 122.89-6.08 123.89-8.2 123.89-13.25L123.89-13.25Q123.89-18.3 122.89-20.4 121.89-22.5 119.74-22.5L119.74-22.5ZM140.44 0.75Q137.74 0.75 136.16-0.93 134.59-2.6 134.59-5.4L134.59-5.4 134.59-37.05 140.74-37.7 140.74-5.65Q140.74-5 141.04-4.6 141.34-4.2 141.94-4.2L141.94-4.2Q142.29-4.2 142.61-4.3 142.94-4.4 143.04-4.4L143.04-4.4 144.24-0.2Q142.54 0.75 140.44 0.75L140.44 0.75ZM156.68-27.15Q161.68-27.15 164.46-23.65 167.23-20.15 167.23-13.25L167.23-13.25Q167.23-6.65 164.43-2.95 161.63 0.75 156.68 0.75L156.68 0.75Q151.73 0.75 148.93-2.88 146.13-6.5 146.13-13.25L146.13-13.25Q146.13-19.95 148.93-23.55 151.73-27.15 156.68-27.15L156.68-27.15ZM156.68-22.5Q154.53-22.5 153.53-20.38 152.53-18.25 152.53-13.25L152.53-13.25Q152.53-8.2 153.53-6.08 154.53-3.95 156.68-3.95L156.68-3.95Q158.83-3.95 159.83-6.08 160.83-8.2 160.83-13.25L160.83-13.25Q160.83-18.3 159.83-20.4 158.83-22.5 156.68-22.5L156.68-22.5ZM189.73-29.85L191.28-25.1Q190.23-24.6 188.75-24.4 187.28-24.2 185.08-24.2L185.08-24.2Q187.18-23.2 188.21-21.53 189.23-19.85 189.23-17.4L189.23-17.4Q189.23-13.4 186.78-10.95 184.33-8.5 180.13-8.5L180.13-8.5Q178.88-8.5 177.58-8.9L177.58-8.9Q176.68-8.15 176.68-6.85L176.68-6.85Q176.68-5.85 177.23-5.35 177.78-4.85 179.28-4.85L179.28-4.85 182.08-4.85Q186.08-4.85 188.43-2.78 190.78-0.7 190.78 2.5L190.78 2.5Q190.78 6.3 187.86 8.58 184.93 10.85 179.53 10.85L179.53 10.85Q173.83 10.85 171.56 8.75 169.28 6.65 169.28 2.6L169.28 2.6 174.73 2.6Q174.73 4.75 175.73 5.65 176.73 6.55 179.58 6.55L179.58 6.55Q182.33 6.55 183.48 5.6 184.63 4.65 184.63 2.9L184.63 2.9Q184.63 1.2 183.68 0.4 182.73-0.4 180.73-0.4L180.73-0.4 178.83-0.4Q175.03-0.4 173.28-1.75 171.53-3.1 171.53-5.45L171.53-5.45Q171.53-6.8 172.25-8.03 172.98-9.25 174.23-10.2L174.23-10.2Q172.18-11.5 171.23-13.3 170.28-15.1 170.28-17.7L170.28-17.7Q170.28-22.05 172.88-24.58 175.48-27.1 179.88-27.1L179.88-27.1Q183.13-27.1 185.25-27.8 187.38-28.5 189.73-29.85L189.73-29.85ZM179.88-23Q178.13-23 177.23-21.75 176.33-20.5 176.33-17.8L176.33-17.8Q176.33-15.25 177.23-13.88 178.13-12.5 179.83-12.5L179.83-12.5Q181.58-12.5 182.43-13.73 183.28-14.95 183.28-17.85L183.28-17.85Q183.28-20.55 182.46-21.78 181.63-23 179.88-23L179.88-23ZM194.03-26.45L200.18-26.45 200.18 0 194.03 0 194.03-26.45ZM197.08-39.65Q198.73-39.65 199.75-38.6 200.78-37.55 200.78-35.9L200.78-35.9Q200.78-34.3 199.75-33.25 198.73-32.2 197.08-32.2L197.08-32.2Q195.43-32.2 194.4-33.25 193.38-34.3 193.38-35.9L193.38-35.9Q193.38-37.55 194.4-38.6 195.43-39.65 197.08-39.65L197.08-39.65ZM215.38-27.15Q217.53-27.15 219.28-26.43 221.03-25.7 222.63-24.15L222.63-24.15 219.97-20.65Q218.88-21.55 217.9-21.98 216.93-22.4 215.78-22.4L215.78-22.4Q213.53-22.4 212.38-20.28 211.22-18.15 211.22-13.1L211.22-13.1Q211.22-8.2 212.4-6.2 213.58-4.2 215.78-4.2L215.78-4.2Q216.88-4.2 217.78-4.6 218.68-5 219.88-5.85L219.88-5.85 222.63-2.3Q219.43 0.75 215.47 0.75L215.47 0.75Q210.38 0.75 207.55-2.73 204.72-6.2 204.72-13L204.72-13Q204.72-17.4 206.03-20.6 207.33-23.8 209.75-25.48 212.18-27.15 215.38-27.15L215.38-27.15Z" opacity="1" transform="matrix(1,0,0,1,0,0)" fill="#ffffff" class="wordmark-text-0" data-fill-palette-color="quaternary" id="text-0"></path></svg></g></svg></g><g transform="matrix(1,0,0,1,0,60.57701655640393)"><svg viewBox="0 0 213.1584412271571 18.164762419641747" height="18.164762419641747" width="213.1584412271571"><g transform="matrix(1,0,0,1,0,0)"><svg width="213.1584412271571" viewBox="0.3500000238418579 -35.25 422.3999938964844 36" height="18.164762419641747" data-palette-color="#ffffff"><path d="M11.75-35.25Q14.75-35.25 17.05-34.2 19.35-33.15 21.3-31.05L21.3-31.05 18.35-27.65Q16.8-29.05 15.33-29.75 13.85-30.45 12.2-30.45L12.2-30.45Q10.3-30.45 9.2-29.28 8.1-28.1 8.1-26.2L8.1-26.2Q8.1-24.3 9.25-23.1 10.4-21.9 13.75-20.6L13.75-20.6Q18.05-18.85 20.08-16.5 22.1-14.15 22.1-9.85L22.1-9.85Q22.1-6.9 20.75-4.48 19.4-2.05 16.88-0.65 14.35 0.75 11 0.75L11 0.75Q7.55 0.75 5-0.48 2.45-1.7 0.35-3.95L0.35-3.95 3.55-7.45Q5.35-5.85 7-5 8.65-4.15 10.6-4.15L10.6-4.15Q12.9-4.15 14.18-5.58 15.45-7 15.45-9.45L15.45-9.45Q15.45-11.6 14.33-12.98 13.2-14.35 10.15-15.5L10.15-15.5Q5.55-17.35 3.53-19.75 1.5-22.15 1.5-25.75L1.5-25.75Q1.5-28.5 2.83-30.65 4.15-32.8 6.5-34.02 8.85-35.25 11.75-35.25L11.75-35.25ZM43-6.4Q43-5.1 43.35-4.48 43.7-3.85 44.5-3.45L44.5-3.45 43.25 0.65Q41.2 0.4 39.97-0.45 38.75-1.3 38.15-3.05L38.15-3.05Q35.85 0.75 31.7 0.75L31.7 0.75Q28.4 0.75 26.45-1.48 24.5-3.7 24.5-7.4L24.5-7.4Q24.5-11.7 27.17-13.95 29.85-16.2 34.95-16.2L34.95-16.2 37-16.2 37-18.05Q37-20.55 36.12-21.58 35.25-22.6 33.3-22.6L33.3-22.6Q30.95-22.6 27.45-21.3L27.45-21.3 26.05-25.3Q28.05-26.2 30.2-26.68 32.35-27.15 34.3-27.15L34.3-27.15Q43-27.15 43-18.35L43-18.35 43-6.4ZM33.35-3.7Q35.75-3.7 37-7L37-7 37-12.55 35.55-12.55Q33-12.55 31.82-11.4 30.65-10.25 30.65-7.85L30.65-7.85Q30.65-5.8 31.35-4.75 32.05-3.7 33.35-3.7L33.35-3.7ZM72.45-27.15Q75.1-27.15 76.7-25.1 78.3-23.05 78.3-19.6L78.3-19.6 78.3 0 72.25 0 72.25-18.95Q72.25-20.85 71.75-21.68 71.25-22.5 70.3-22.5L70.3-22.5Q68.35-22.5 66.55-18.8L66.55-18.8 66.55 0 60.55 0 60.55-18.95Q60.55-22.5 58.65-22.5L58.65-22.5Q56.6-22.5 54.85-18.8L54.85-18.8 54.85 0 48.8 0 48.8-26.45 54.15-26.45 54.55-23.05Q57.15-27.15 60.8-27.15L60.8-27.15Q62.65-27.15 64-26 65.35-24.85 66.05-22.75L66.05-22.75Q68.7-27.15 72.45-27.15L72.45-27.15ZM102.64-13.85Q102.64-13.4 102.49-11.3L102.49-11.3 88.84-11.3Q89.04-7.2 90.27-5.58 91.49-3.95 93.74-3.95L93.74-3.95Q95.29-3.95 96.54-4.48 97.79-5 99.24-6.15L99.24-6.15 101.79-2.65Q98.29 0.75 93.39 0.75L93.39 0.75Q88.19 0.75 85.42-2.85 82.64-6.45 82.64-13L82.64-13Q82.64-19.55 85.29-23.35 87.94-27.15 92.79-27.15L92.79-27.15Q97.44-27.15 100.04-23.78 102.64-20.4 102.64-13.85L102.64-13.85ZM96.64-15.3L96.64-15.65Q96.64-19.4 95.74-21.13 94.84-22.85 92.84-22.85L92.84-22.85Q90.99-22.85 90.02-21.18 89.04-19.5 88.84-15.3L88.84-15.3 96.64-15.3ZM115.99-34.55L134.79-34.55 134.79-29.6 121.59-5.2 134.94-5.2 134.34 0 114.69 0 114.69-4.9 127.94-29.45 115.99-29.45 115.99-34.55ZM148.19-27.15Q153.19-27.15 155.96-23.65 158.74-20.15 158.74-13.25L158.74-13.25Q158.74-6.65 155.94-2.95 153.14 0.75 148.19 0.75L148.19 0.75Q143.24 0.75 140.44-2.88 137.64-6.5 137.64-13.25L137.64-13.25Q137.64-19.95 140.44-23.55 143.24-27.15 148.19-27.15L148.19-27.15ZM148.19-22.5Q146.04-22.5 145.04-20.38 144.04-18.25 144.04-13.25L144.04-13.25Q144.04-8.2 145.04-6.08 146.04-3.95 148.19-3.95L148.19-3.95Q150.34-3.95 151.34-6.08 152.34-8.2 152.34-13.25L152.34-13.25Q152.34-18.3 151.34-20.4 150.34-22.5 148.19-22.5L148.19-22.5ZM172.68-27.15Q177.68-27.15 180.46-23.65 183.23-20.15 183.23-13.25L183.23-13.25Q183.23-6.65 180.43-2.95 177.63 0.75 172.68 0.75L172.68 0.75Q167.73 0.75 164.93-2.88 162.13-6.5 162.13-13.25L162.13-13.25Q162.13-19.95 164.93-23.55 167.73-27.15 172.68-27.15L172.68-27.15ZM172.68-22.5Q170.53-22.5 169.53-20.38 168.53-18.25 168.53-13.25L168.53-13.25Q168.53-8.2 169.53-6.08 170.53-3.95 172.68-3.95L172.68-3.95Q174.83-3.95 175.83-6.08 176.83-8.2 176.83-13.25L176.83-13.25Q176.83-18.3 175.83-20.4 174.83-22.5 172.68-22.5L172.68-22.5ZM211.83-18.3Q215.18-17.55 217.1-15.63 219.03-13.7 219.03-9.9L219.03-9.9Q219.03-4.9 215.65-2.45 212.28 0 206.48 0L206.48 0 197.78 0 197.78-34.55 205.33-34.55Q211.28-34.55 214.53-32.3 217.78-30.05 217.78-25.75L217.78-25.75Q217.78-22.85 216.15-20.95 214.53-19.05 211.83-18.3L211.83-18.3ZM205.98-29.85L204.13-29.85 204.13-20.3 206.28-20.3Q211.33-20.3 211.33-25.2L211.33-25.2Q211.33-27.65 210.05-28.75 208.78-29.85 205.98-29.85L205.98-29.85ZM206.53-4.8Q209.43-4.8 210.93-6.03 212.43-7.25 212.43-10.15L212.43-10.15Q212.43-13.05 211.03-14.43 209.63-15.8 206.68-15.8L206.68-15.8 204.13-15.8 204.13-4.8 206.53-4.8ZM241.18-26.45L241.18 0 235.83 0 235.53-3.35Q234.28-1.3 232.73-0.28 231.18 0.75 229.13 0.75L229.13 0.75Q226.23 0.75 224.55-1.3 222.88-3.35 222.88-6.65L222.88-6.65 222.88-26.45 229.03-26.45 229.03-7Q229.03-3.9 231.13-3.9L231.13-3.9Q232.33-3.9 233.28-4.83 234.23-5.75 235.03-7.45L235.03-7.45 235.03-26.45 241.18-26.45ZM258.02-5L260.17-1.2Q257.72 0.75 254.42 0.75L254.42 0.75Q250.97 0.75 249.17-1.23 247.37-3.2 247.37-6.6L247.37-6.6 247.37-22 244.27-22 244.27-26.45 247.37-26.45 247.37-32.3 253.52-33.05 253.52-26.45 258.52-26.45 257.92-22 253.52-22 253.52-6.6Q253.52-4.2 255.57-4.2L255.57-4.2Q256.22-4.2 256.72-4.38 257.22-4.55 258.02-5L258.02-5ZM281.47-35.25Q284.47-35.25 286.77-34.2 289.07-33.15 291.02-31.05L291.02-31.05 288.07-27.65Q286.52-29.05 285.04-29.75 283.57-30.45 281.92-30.45L281.92-30.45Q280.02-30.45 278.92-29.28 277.82-28.1 277.82-26.2L277.82-26.2Q277.82-24.3 278.97-23.1 280.12-21.9 283.47-20.6L283.47-20.6Q287.77-18.85 289.79-16.5 291.82-14.15 291.82-9.85L291.82-9.85Q291.82-6.9 290.47-4.48 289.12-2.05 286.59-0.65 284.07 0.75 280.72 0.75L280.72 0.75Q277.27 0.75 274.72-0.48 272.17-1.7 270.07-3.95L270.07-3.95 273.27-7.45Q275.07-5.85 276.72-5 278.37-4.15 280.32-4.15L280.32-4.15Q282.62-4.15 283.89-5.58 285.17-7 285.17-9.45L285.17-9.45Q285.17-11.6 284.04-12.98 282.92-14.35 279.87-15.5L279.87-15.5Q275.27-17.35 273.24-19.75 271.22-22.15 271.22-25.75L271.22-25.75Q271.22-28.5 272.54-30.65 273.87-32.8 276.22-34.02 278.57-35.25 281.47-35.25L281.47-35.25ZM319.47-27.15Q322.12-27.15 323.72-25.1 325.32-23.05 325.32-19.6L325.32-19.6 325.32 0 319.27 0 319.27-18.95Q319.27-20.85 318.77-21.68 318.27-22.5 317.32-22.5L317.32-22.5Q315.37-22.5 313.57-18.8L313.57-18.8 313.57 0 307.57 0 307.57-18.95Q307.57-22.5 305.67-22.5L305.67-22.5Q303.62-22.5 301.87-18.8L301.87-18.8 301.87 0 295.82 0 295.82-26.45 301.17-26.45 301.57-23.05Q304.17-27.15 307.82-27.15L307.82-27.15Q309.67-27.15 311.02-26 312.37-24.85 313.07-22.75L313.07-22.75Q315.72-27.15 319.47-27.15L319.47-27.15ZM347.71-6.4Q347.71-5.1 348.06-4.48 348.41-3.85 349.21-3.45L349.21-3.45 347.96 0.65Q345.91 0.4 344.69-0.45 343.46-1.3 342.86-3.05L342.86-3.05Q340.56 0.75 336.41 0.75L336.41 0.75Q333.11 0.75 331.16-1.48 329.21-3.7 329.21-7.4L329.21-7.4Q329.21-11.7 331.89-13.95 334.56-16.2 339.66-16.2L339.66-16.2 341.71-16.2 341.71-18.05Q341.71-20.55 340.84-21.58 339.96-22.6 338.01-22.6L338.01-22.6Q335.66-22.6 332.16-21.3L332.16-21.3 330.76-25.3Q332.76-26.2 334.91-26.68 337.06-27.15 339.01-27.15L339.01-27.15Q347.71-27.15 347.71-18.35L347.71-18.35 347.71-6.4ZM338.06-3.7Q340.46-3.7 341.71-7L341.71-7 341.71-12.55 340.26-12.55Q337.71-12.55 336.54-11.4 335.36-10.25 335.36-7.85L335.36-7.85Q335.36-5.8 336.06-4.75 336.76-3.7 338.06-3.7L338.06-3.7ZM365.16-27.1Q366.31-27.1 367.21-26.75L367.21-26.75 366.21-20.85Q365.21-21.1 364.36-21.1L364.36-21.1Q362.46-21.1 361.36-19.45 360.26-17.8 359.66-14.55L359.66-14.55 359.66 0 353.51 0 353.51-26.45 358.86-26.45 359.31-21.85Q361.16-27.1 365.16-27.1L365.16-27.1ZM381.21-5L383.36-1.2Q380.91 0.75 377.61 0.75L377.61 0.75Q374.16 0.75 372.36-1.23 370.56-3.2 370.56-6.6L370.56-6.6 370.56-22 367.46-22 367.46-26.45 370.56-26.45 370.56-32.3 376.71-33.05 376.71-26.45 381.71-26.45 381.11-22 376.71-22 376.71-6.6Q376.71-4.2 378.76-4.2L378.76-4.2Q379.41-4.2 379.91-4.38 380.41-4.55 381.21-5L381.21-5ZM404.76-13.85Q404.76-13.4 404.61-11.3L404.61-11.3 390.96-11.3Q391.16-7.2 392.38-5.58 393.61-3.95 395.86-3.95L395.86-3.95Q397.41-3.95 398.66-4.48 399.91-5 401.36-6.15L401.36-6.15 403.91-2.65Q400.41 0.75 395.51 0.75L395.51 0.75Q390.31 0.75 387.53-2.85 384.76-6.45 384.76-13L384.76-13Q384.76-19.55 387.41-23.35 390.06-27.15 394.91-27.15L394.91-27.15Q399.56-27.15 402.16-23.78 404.76-20.4 404.76-13.85L404.76-13.85ZM398.76-15.3L398.76-15.65Q398.76-19.4 397.86-21.13 396.96-22.85 394.96-22.85L394.96-22.85Q393.11-22.85 392.13-21.18 391.16-19.5 390.96-15.3L390.96-15.3 398.76-15.3ZM420.7-27.1Q421.85-27.1 422.75-26.75L422.75-26.75 421.75-20.85Q420.75-21.1 419.9-21.1L419.9-21.1Q418-21.1 416.9-19.45 415.8-17.8 415.2-14.55L415.2-14.55 415.2 0 409.05 0 409.05-26.45 414.4-26.45 414.85-21.85Q416.7-27.1 420.7-27.1L420.7-27.1Z" opacity="1" transform="matrix(1,0,0,1,0,0)" fill="#ffffff" class="slogan-text-1" data-fill-palette-color="quaternary" id="text-1"></path></svg></g></svg></g></svg></g></svg></g><g transform="matrix(1,0,0,1,40.713262274387006,0)"><svg viewBox="0 0 131.7319166783831 99.11220599514826" height="99.11220599514826" width="131.7319166783831"><g><svg xmlns="http://www.w3.org/2000/svg" xml:space="preserve" viewBox="5.000995635986328 16.142438888549805 90.000244140625 67.7142105102539" x="0" y="0" height="99.11220599514826" width="131.7319166783831" class="icon-icon-0" data-fill-palette-color="quaternary" id="icon-0"><path d="M92.265 38.032c-5.609-14.9-20.763-22.998-33.627-21.767-19.624 1.877-31.548 9.617-31.548 9.617-5.981-1.604-7.031-1.01-11.026 1.642-2.613 1.733-9.569 11.743-10.201 13.68-1.173 3.599-1.018 2.739-0.313 6.962 1.438 8.627 5.468 17.117 5.468 17.117 0.976 1.51 0.401 6.224 0.085 8.056-0.437 2.52-2.465 7.352-2.388 8.21 0 0 3.573 2.516 4.301 2.035 4.614-3.049 6.567-20.057 7.312-18.924 1.332 2.036 1.367 2.386 3.597 2.505 4.223 0.351 3.05 0 4.223-2.111 1.299-2.342 5.041-5.748 5.041-5.748 5.345-0.186 5.511 19.01 5.511 22.636 0 1.035 0.84 1.877 1.877 1.877 1.845 0 3.786 0.126 5.589-0.083 0.719-0.084 1.963-14.389 2.227-15.842 0.696-3.835 1.683-7.885 6.728-6.594 3.712 0.949 11.374 2.111 11.374 2.111 1.407 2.346 1.938 9.397 2.23 12.824v5.706c0 1.035 0.839 1.877 1.876 1.877h5.63a1.877 1.877 0 0 0 1.876-1.877c0.002-5.124 0.648-10.232 2.879-15.028 1.543-3.316 3.865-6.105 5.201-9.544 1.623-4.18 1.771-12.607 3.413-13.427 1.173 5.001 2.425 11.334 1.126 16.989-0.198 0.851-3.56 9.111-1.245 8.459 3.753-1.054 5.396-12.547 5.515-17.828 0.092-4.19-1.036-9.02-2.731-13.53M17.121 56.61a3.753 3.753 0 1 1 0-7.505 3.753 3.753 0 0 1 0 7.505m13.525 0.39c-3.694 1.078-2.892-2.426-2.892-2.426 5.63-1.248 6.881-7.347 7.037-11.1s-0.782-7.975-4.223-7.975c-3.439 0-3.565 1.372-4.535 2.032-2.189 1.485-4.108-0.117-3.362-1.254 1.871-2.844 8.271-6.366 11.84-4.61 3.507 1.728 5.283 5.51 5.283 9.302 0.001 7.195-5.395 14.937-9.148 16.031" fill="#ffffff" data-fill-palette-color="quaternary"></path></svg></g></svg></g><g></g></svg></g></svg></g></svg></g><defs></defs></svg><rect width="342.85155851775386" height="342.85155851775386" fill="none" stroke="none" visibility="hidden"></rect></g></svg></g></g></g></g><rect width="225.13906555772985" height="61.00753730430529" x="208.43046722113502" y="210.96995015900194" rx="2.5" ry="2.5" fill="transparent" class="logo-element-hover-target"></rect><rect width="225.13325587084148" height="30.16475048923678" x="208.4333720645792" y="271.54698202054794" rx="2.5" ry="2.5" fill="transparent" class="logo-element-hover-target"></rect><rect width="143.73189823874748" height="111.11219766695203" x="249.1340508806262" y="100.28825793480918" rx="2.5" ry="2.5" fill="transparent" class="logo-element-hover-target"></rect></svg>